<?xml version="1.0" standalone="no"?>
<!DOCTYPE svg PUBLIC "-//W3C//DTD SVG 20010904//EN"
 "http://www.w3.org/TR/2001/REC-SVG-20010904/DTD/svg10.dtd">
<svg version="1.0" xmlns="http://www.w3.org/2000/svg"
 width="2228.000000pt" height="2228.000000pt" viewBox="0 0 2228.000000 2228.000000"
 preserveAspectRatio="xMidYMid meet">
<metadata>
Created by potrace 1.11, written by Peter Selinger 2001-2013
</metadata>
<g transform="translate(0.000000,2228.000000) scale(0.100000,-0.100000)"
fill="#000000" stroke="none">
<path d="M13665 17653 c-22 -8 -80 -19 -130 -22 -62 -5 -99 -13 -118 -25 -18
-13 -58 -22 -117 -27 -49 -5 -102 -15 -118 -23 -16 -8 -76 -21 -134 -29 -58
-8 -123 -24 -144 -35 -22 -11 -70 -22 -113 -25 -50 -4 -80 -12 -93 -24 -15
-14 -44 -19 -136 -23 -107 -5 -118 -7 -126 -26 -10 -23 -60 -33 -156 -34 -25
0 -65 -10 -90 -21 -32 -15 -67 -22 -121 -23 -56 -1 -83 -6 -105 -21 -16 -11
-50 -29 -76 -41 -74 -35 -158 -92 -221 -150 -32 -30 -67 -54 -77 -54 -10 0
-45 -23 -76 -50 -32 -28 -69 -53 -83 -57 -14 -3 -52 -30 -83 -58 -31 -29 -69
-56 -84 -59 -15 -4 -54 -28 -87 -54 -34 -25 -114 -80 -179 -122 -65 -41 -144
-98 -176 -127 -32 -28 -75 -58 -94 -66 -19 -8 -50 -28 -69 -44 -19 -17 -59
-42 -90 -57 -36 -16 -71 -44 -97 -75 -24 -28 -62 -58 -89 -71 -27 -13 -69 -40
-95 -62 -26 -21 -64 -46 -85 -54 -21 -9 -54 -34 -75 -55 -21 -21 -45 -39 -53
-39 -27 0 -73 -29 -80 -49 -3 -11 -15 -23 -26 -26 -26 -9 -24 -25 11 -73 l30
-42 83 0 c73 0 87 3 117 25 32 24 69 32 82 19 22 -21 -173 -215 -230 -229 -15
-3 -43 -18 -63 -31 -24 -17 -57 -27 -95 -31 -33 -4 -79 -17 -103 -30 -35 -18
-60 -23 -121 -23 -69 0 -79 -3 -100 -25 -22 -24 -29 -25 -136 -25 l-113 0 -7
38 c-9 52 -20 62 -68 62 -29 0 -54 9 -85 30 -30 19 -64 31 -100 36 -36 4 -64
14 -79 27 -16 15 -35 21 -62 21 -46 -2 -183 -64 -222 -101 -31 -29 -37 -68
-13 -77 9 -3 21 -19 26 -36 8 -20 36 -47 91 -86 98 -69 145 -90 220 -99 36 -4
61 -12 67 -22 12 -22 113 -20 147 2 17 11 53 17 117 19 185 7 352 19 357 26
15 22 75 40 134 40 53 0 72 5 102 25 20 14 47 25 59 25 12 0 29 7 36 16 7 9
37 27 66 39 40 18 86 57 194 167 148 149 179 188 179 226 0 18 6 22 33 22 49
1 110 17 122 33 8 12 52 15 215 19 187 4 209 6 247 26 48 25 146 42 251 42 71
0 73 -1 117 -41 24 -22 47 -53 50 -70 4 -16 17 -42 29 -57 45 -54 136 -197
136 -214 0 -9 11 -30 25 -46 15 -18 25 -42 25 -62 0 -33 -50 -157 -81 -202
-13 -17 -22 -56 -28 -112 -5 -53 -15 -96 -26 -113 -28 -42 -34 -246 -10 -333
10 -36 25 -100 34 -142 9 -42 25 -86 34 -96 10 -11 22 -47 27 -81 7 -53 15
-68 54 -112 26 -28 46 -61 46 -73 0 -13 12 -33 26 -47 15 -13 46 -54 70 -90
28 -43 54 -70 71 -77 16 -5 69 -48 118 -94 69 -66 112 -96 184 -133 52 -26
106 -55 120 -65 14 -11 53 -26 86 -34 33 -8 80 -22 105 -32 35 -13 89 -18 239
-22 200 -5 286 4 316 34 8 8 48 19 92 24 68 8 94 17 210 78 83 43 153 88 189
121 31 29 73 60 93 71 45 23 83 63 110 116 11 23 38 56 60 73 28 23 42 43 47
67 3 19 22 54 42 77 39 47 62 95 62 130 0 13 12 42 27 63 24 36 27 48 28 139
1 73 6 109 18 132 21 40 22 143 1 198 -10 26 -18 90 -21 180 -5 116 -9 144
-24 164 -11 13 -19 29 -19 35 0 11 -29 69 -110 220 -17 33 -58 90 -91 128 -32
38 -66 83 -74 99 -9 16 -30 35 -48 43 -17 7 -61 39 -96 70 -79 69 -225 146
-276 146 -32 0 -43 7 -83 51 -58 64 -69 83 -77 134 -4 22 -16 55 -28 74 -13
21 -23 61 -27 105 -8 72 -43 171 -74 205 -10 11 -20 37 -23 58 -4 34 -1 40 30
61 18 12 143 138 278 280 134 141 282 295 329 342 47 47 91 96 97 110 6 14 34
51 62 84 31 35 50 64 47 73 -3 8 -6 23 -6 34 0 17 -8 19 -82 19 -51 -1 -98 -7
-123 -17z"/>
<path d="M16549 16141 c-56 -4 -83 -11 -98 -25 -15 -14 -41 -20 -98 -24 -69
-4 -84 -9 -133 -42 -30 -20 -80 -49 -110 -63 -30 -15 -84 -52 -120 -83 -229
-197 -260 -228 -276 -270 -9 -23 -14 -48 -12 -56 5 -25 128 -127 164 -137 19
-5 51 -23 72 -39 20 -16 57 -39 80 -51 24 -13 63 -40 85 -60 23 -21 61 -48 84
-60 54 -27 284 -246 528 -502 61 -64 121 -123 134 -130 23 -14 21 -16 -130
-155 -85 -77 -178 -160 -208 -184 -30 -25 -82 -71 -117 -102 -34 -31 -80 -64
-101 -73 -21 -9 -67 -45 -103 -80 -42 -42 -81 -70 -110 -80 -24 -9 -47 -19
-50 -24 -7 -13 -157 -107 -209 -132 -25 -12 -67 -36 -95 -53 -44 -28 -86 -52
-246 -141 -14 -8 -38 -20 -55 -28 -16 -8 -64 -32 -105 -54 -41 -22 -89 -43
-107 -47 -17 -4 -57 -23 -90 -43 -32 -19 -76 -43 -98 -53 -22 -9 -49 -27 -59
-39 -14 -16 -31 -21 -66 -21 -33 0 -55 -7 -78 -24 -18 -13 -51 -26 -73 -30
-29 -5 -43 -12 -46 -26 -4 -16 -16 -20 -72 -22 -56 -3 -67 -6 -75 -24 -8 -19
-22 -22 -128 -31 -92 -8 -124 -15 -140 -29 -19 -18 -46 -19 -492 -19 l-471 0
-55 24 c-40 17 -80 25 -145 29 -76 4 -93 8 -106 25 -13 16 -32 22 -80 25 -43
3 -74 11 -94 26 -21 15 -49 22 -100 24 -48 3 -76 10 -90 21 -11 10 -56 35
-100 55 -44 21 -124 60 -178 87 -54 27 -104 49 -112 49 -8 0 -54 21 -102 46
-48 26 -144 76 -213 112 -69 35 -136 72 -150 82 -14 9 -34 20 -46 24 -11 3
-64 35 -117 70 -130 85 -309 172 -407 197 -25 6 -52 17 -60 24 -8 7 -34 18
-58 25 -23 6 -64 22 -89 35 -37 20 -61 25 -122 25 -47 0 -87 6 -104 15 -24 12
-32 12 -50 1 -12 -8 -53 -17 -92 -20 -38 -4 -88 -15 -111 -25 -23 -11 -61 -22
-85 -26 -24 -4 -65 -18 -91 -32 -25 -13 -73 -27 -105 -30 -32 -3 -75 -14 -95
-24 -21 -11 -58 -19 -86 -19 -41 0 -53 -5 -77 -30 -20 -21 -38 -30 -59 -30
-17 0 -53 -11 -80 -25 -27 -14 -59 -25 -70 -25 -12 0 -35 -8 -51 -19 -17 -10
-48 -24 -70 -31 -22 -7 -105 -45 -185 -85 -80 -40 -161 -75 -180 -79 -19 -3
-50 -22 -70 -40 -19 -19 -78 -55 -130 -81 -52 -26 -102 -51 -110 -56 -8 -5
-37 -21 -65 -35 -27 -15 -67 -42 -87 -60 -21 -18 -59 -44 -85 -58 -26 -13 -73
-47 -103 -74 -30 -27 -75 -59 -100 -72 -25 -13 -88 -65 -142 -116 -53 -52
-104 -94 -113 -94 -26 0 -303 -277 -330 -330 -13 -25 -49 -70 -80 -100 -70
-68 -146 -162 -173 -215 -11 -22 -46 -65 -77 -95 -31 -30 -68 -77 -82 -105
-14 -27 -40 -66 -58 -85 -18 -19 -115 -165 -215 -325 -100 -159 -197 -306
-215 -325 -18 -19 -36 -45 -40 -58 -3 -12 -22 -43 -42 -68 -47 -63 -107 -162
-121 -201 -6 -18 -44 -76 -85 -130 -101 -134 -216 -308 -230 -346 -6 -18 -60
-85 -121 -150 -61 -64 -121 -136 -134 -159 -34 -64 -493 -531 -574 -584 -37
-25 -70 -50 -74 -55 -10 -16 -117 -93 -154 -110 -19 -9 -69 -46 -110 -83 -41
-36 -78 -66 -83 -66 -19 0 -278 -133 -285 -147 -6 -10 -32 -18 -75 -22 -43 -5
-73 -13 -87 -26 -11 -10 -45 -22 -75 -26 -31 -4 -66 -16 -81 -28 -22 -17 -41
-21 -102 -21 -69 0 -78 -2 -105 -27 l-28 -28 -187 0 c-169 -1 -193 -3 -245
-23 -52 -20 -85 -23 -335 -31 -225 -7 -287 -12 -332 -27 -81 -27 -313 -27
-355 0 -17 11 -54 21 -92 24 l-63 5 0 -29 c0 -42 94 -121 211 -179 52 -25 103
-54 114 -64 11 -11 49 -36 85 -56 81 -46 148 -85 275 -164 54 -33 104 -61 111
-61 12 0 137 -58 184 -85 14 -8 38 -15 53 -15 30 0 63 -14 84 -36 7 -7 35 -16
61 -19 26 -4 60 -16 77 -28 17 -12 54 -24 88 -28 33 -4 67 -15 77 -24 11 -10
41 -21 67 -26 26 -5 60 -18 75 -29 19 -14 48 -21 94 -24 47 -3 75 -11 95 -25
21 -16 43 -21 91 -21 51 0 69 -5 100 -27 29 -20 57 -28 116 -34 46 -4 106 -19
150 -37 l73 -29 -134 -86 c-74 -48 -139 -87 -145 -87 -6 0 -36 -20 -65 -44
-30 -24 -68 -51 -85 -60 -16 -8 -54 -38 -85 -66 -32 -29 -61 -48 -69 -45 -8 3
-32 -7 -54 -23 -51 -36 -340 -212 -349 -212 -4 0 -32 -18 -63 -39 -32 -21 -68
-42 -82 -46 -14 -4 -34 -15 -45 -25 -11 -10 -35 -21 -52 -25 -18 -3 -35 -10
-38 -15 -3 -5 -51 -32 -108 -60 -56 -29 -109 -58 -117 -65 -8 -6 -29 -17 -47
-23 -31 -10 -147 -78 -223 -128 -19 -13 -42 -24 -50 -24 -9 0 -34 -9 -55 -21
-22 -11 -83 -38 -135 -61 -52 -22 -106 -48 -120 -57 -14 -10 -61 -32 -105 -50
-44 -18 -96 -43 -116 -57 -25 -17 -49 -24 -82 -24 -36 0 -51 -5 -69 -24 -15
-15 -39 -26 -66 -29 -24 -3 -51 -12 -61 -21 -10 -9 -42 -20 -72 -26 -52 -9
-85 -22 -214 -80 -33 -15 -78 -31 -100 -35 -22 -3 -50 -16 -62 -27 -15 -14
-40 -22 -88 -25 -50 -5 -69 -10 -80 -25 -10 -15 -29 -21 -79 -25 -51 -5 -70
-11 -87 -29 -18 -20 -33 -24 -76 -24 -34 0 -68 -7 -93 -20 -21 -11 -65 -23
-97 -26 -32 -4 -73 -15 -91 -26 -18 -11 -66 -24 -109 -29 -41 -6 -92 -18 -112
-28 -20 -11 -62 -22 -94 -26 -31 -4 -74 -16 -95 -27 -20 -11 -66 -24 -102 -29
-47 -6 -69 -15 -79 -29 -10 -15 -25 -20 -65 -20 -65 -1 -137 -15 -145 -28 -10
-17 -63 -33 -101 -32 -73 4 -90 0 -112 -25 -20 -23 -28 -25 -99 -24 -68 1 -87
-3 -142 -30 -35 -17 -78 -31 -96 -31 -26 0 -32 -3 -27 -16 3 -9 6 -19 6 -24 0
-30 63 -32 712 -27 552 5 661 8 704 21 74 23 257 36 509 36 219 0 220 0 275
27 54 27 59 28 214 25 148 -2 162 -1 200 20 34 18 63 23 176 27 117 5 139 9
165 28 23 16 49 22 111 26 54 3 98 12 130 27 33 15 68 22 109 22 70 0 133 14
156 34 9 8 51 19 92 23 45 5 94 18 119 31 27 14 68 25 111 28 59 4 70 8 79 27
9 20 19 23 92 28 56 3 93 11 121 26 22 12 58 21 82 21 31 0 49 6 65 22 16 16
40 24 84 29 41 4 72 14 90 28 14 11 39 21 54 21 14 0 48 11 73 24 26 13 71 27
100 30 30 4 67 18 89 33 26 18 50 25 79 25 34 -1 47 5 70 29 15 16 37 29 49
29 43 0 200 61 332 129 73 38 158 74 188 80 30 7 64 20 75 30 11 10 37 24 57
30 20 7 42 19 48 27 7 7 19 14 27 14 12 0 216 93 268 122 11 7 72 40 135 75
63 36 127 78 142 95 29 34 48 30 48 -9 0 -18 -20 -46 -69 -97 -37 -39 -85 -98
-106 -131 -21 -33 -52 -76 -70 -96 -18 -20 -45 -58 -61 -85 -16 -27 -56 -76
-90 -109 -37 -36 -73 -83 -88 -115 -15 -30 -48 -83 -74 -116 -61 -80 -103
-144 -143 -222 -30 -58 -31 -64 -16 -79 9 -9 18 -15 21 -12 2 2 29 43 59 91
31 47 61 89 66 93 6 3 29 37 51 75 26 45 67 93 116 137 42 37 107 110 146 161
71 94 434 492 449 492 5 0 26 26 48 58 21 31 86 101 142 155 195 185 412 392
483 462 197 194 410 388 486 442 47 34 99 75 115 93 17 17 47 41 68 51 21 11
71 49 111 84 40 34 91 72 114 84 23 12 70 48 104 80 35 32 86 69 113 83 28 13
72 41 98 61 27 20 54 37 61 37 7 0 30 15 52 34 21 18 88 59 149 91 60 31 121
66 134 76 13 11 29 19 35 19 6 0 42 22 80 50 38 27 73 50 79 50 6 0 27 10 46
23 77 51 209 127 219 127 6 0 27 14 45 30 19 17 40 30 47 30 11 0 59 22 135
63 17 9 41 21 55 28 59 26 262 128 350 175 52 28 120 59 150 69 30 10 82 33
116 51 33 19 69 34 78 34 9 0 63 22 119 48 56 27 149 66 207 87 58 22 115 47
127 56 13 9 44 20 69 24 26 4 59 15 73 26 14 10 49 25 76 33 85 25 178 57 223
77 23 10 64 19 90 19 32 0 59 8 87 25 27 16 55 24 86 25 36 0 55 7 84 30 33
26 46 30 102 30 49 0 75 6 112 26 43 22 64 26 149 27 97 2 100 2 115 29 14 24
20 26 51 21 62 -10 162 6 201 33 34 23 44 24 175 24 129 0 142 2 186 25 44 24
56 25 207 25 151 0 163 1 215 26 l54 26 993 0 993 1 38 -24 c37 -22 45 -23
323 -27 l286 -4 28 -26 28 -26 268 -1 c250 0 270 -1 290 -19 31 -28 250 -38
766 -34 l430 3 55 25 c52 23 64 24 210 22 183 -4 275 4 295 24 23 24 73 34
163 34 69 0 91 4 130 25 36 19 62 25 112 25 51 1 73 6 105 25 25 16 55 25 81
25 25 0 60 10 88 25 26 14 77 29 113 35 36 5 73 16 82 24 9 8 36 19 60 25 23
5 51 18 61 29 10 11 34 22 53 26 19 4 40 13 47 21 6 8 28 19 47 26 20 6 51 22
71 35 19 13 41 24 49 24 9 0 28 11 45 25 16 14 60 43 97 64 37 22 74 48 82 57
8 10 46 37 84 62 96 61 559 520 622 617 25 38 67 94 93 125 55 65 126 165 165
235 16 28 39 62 51 77 12 15 25 42 29 60 4 18 15 42 25 53 24 28 86 144 94
176 3 14 14 35 25 47 10 13 22 38 25 56 4 19 13 39 21 46 8 7 20 31 26 54 6
22 19 52 29 66 12 17 19 50 22 99 3 63 7 76 28 93 24 19 25 26 25 129 1 98 3
111 24 140 29 39 40 123 40 316 1 110 4 141 22 185 20 49 22 79 28 438 6 285
4 421 -5 525 -7 77 -13 143 -14 148 0 4 -7 7 -15 7 -30 0 -43 -43 -48 -155 -3
-67 -13 -141 -27 -190 -18 -69 -22 -115 -26 -340 -5 -254 -6 -261 -32 -320
-25 -56 -27 -69 -25 -196 1 -135 1 -137 -23 -148 -22 -10 -24 -16 -24 -92 0
-72 -3 -84 -25 -111 -19 -22 -25 -41 -25 -76 0 -30 -7 -58 -20 -77 -11 -16
-25 -48 -31 -70 -6 -21 -19 -50 -29 -62 -10 -13 -21 -39 -24 -59 -10 -50 -131
-293 -165 -329 -15 -16 -52 -70 -81 -120 -59 -99 -89 -140 -168 -229 -30 -33
-60 -76 -68 -94 -14 -34 -482 -519 -595 -617 -32 -27 -101 -77 -154 -110 -53
-33 -128 -81 -168 -106 -40 -26 -92 -52 -116 -59 -24 -6 -56 -20 -70 -30 -14
-10 -46 -21 -70 -24 -24 -4 -54 -15 -67 -25 -13 -10 -44 -22 -69 -25 -29 -5
-49 -14 -55 -26 -7 -13 -25 -21 -58 -25 -47 -5 -116 -25 -304 -84 -66 -21
-118 -31 -160 -31 -47 0 -72 -6 -98 -22 -28 -17 -58 -23 -145 -28 -71 -5 -128
-15 -160 -27 -47 -19 -83 -21 -670 -26 -722 -7 -1086 2 -1155 28 -35 14 -92
20 -250 25 -178 6 -211 10 -245 28 -36 18 -63 20 -260 24 -208 4 -223 5 -275
28 l-55 25 -825 0 -825 0 -117 -27 c-94 -22 -142 -28 -240 -28 -110 -1 -128
-3 -173 -25 -46 -23 -61 -25 -201 -25 -142 0 -153 -1 -180 -22 -24 -20 -45
-24 -136 -29 -92 -5 -111 -9 -131 -27 -20 -19 -35 -22 -114 -22 -76 0 -97 -4
-136 -25 -26 -13 -70 -27 -99 -31 -29 -4 -78 -16 -108 -28 -50 -19 -73 -21
-239 -19 -177 2 -184 3 -208 25 -22 21 -35 23 -133 25 -92 3 -115 6 -147 25
-34 20 -56 24 -188 28 -139 5 -152 7 -173 28 -13 13 -34 22 -52 22 -16 0 -30
2 -30 4 0 3 11 26 25 52 14 26 25 60 25 75 0 15 11 49 25 75 15 29 25 63 25
90 0 30 5 47 19 56 36 26 81 110 81 153 0 33 5 44 23 54 13 7 37 36 55 66 18
29 52 77 75 107 24 29 62 80 84 113 22 33 59 81 82 107 49 55 222 180 272 197
20 6 49 25 65 42 16 17 58 45 94 63 36 18 111 57 167 88 57 31 117 61 134 67
18 6 55 26 83 45 80 53 117 61 250 59 113 -2 121 -4 146 -28 23 -22 34 -25
107 -25 68 0 85 -3 109 -22 26 -21 43 -24 175 -29 128 -5 152 -9 190 -29 41
-22 59 -24 249 -29 169 -5 209 -9 230 -23 22 -15 61 -17 302 -19 257 -2 278
-1 305 17 23 16 53 20 178 24 129 5 157 9 200 29 39 19 73 25 160 29 98 4 111
7 127 27 13 17 31 23 77 28 36 3 70 13 87 25 16 11 51 23 77 27 27 3 69 17 94
31 25 13 54 24 64 24 11 0 19 4 19 9 0 21 34 41 68 41 20 0 55 9 78 19 55 25
328 208 389 261 26 23 72 60 102 81 29 22 80 64 114 94 34 31 96 80 138 109
150 106 743 699 802 802 16 29 57 83 90 120 34 38 69 85 80 106 10 20 37 57
59 83 22 25 40 52 40 60 0 8 20 42 44 77 24 35 61 103 83 150 46 97 59 110 73
74 5 -14 30 -57 55 -95 25 -38 62 -107 82 -152 19 -46 42 -89 49 -97 8 -7 17
-25 20 -40 4 -15 17 -48 30 -74 13 -26 24 -59 24 -73 0 -28 16 -66 33 -76 5
-4 16 -44 24 -90 8 -46 23 -101 34 -122 15 -30 19 -58 19 -146 0 -96 3 -113
25 -155 14 -26 25 -60 25 -77 0 -42 27 -49 189 -49 128 0 201 11 201 30 0 15
63 30 129 30 55 0 68 3 79 20 7 11 23 20 36 20 27 0 56 21 148 106 36 34 76
65 87 69 23 7 127 159 147 215 7 19 13 49 13 65 1 32 5 28 -124 114 -33 23
-94 76 -135 118 -42 43 -186 185 -322 316 -193 187 -254 253 -284 305 -22 37
-61 93 -89 124 -27 31 -68 84 -90 118 -55 83 -75 113 -112 168 -32 48 -201
380 -223 440 -7 17 -16 32 -20 32 -5 0 -14 17 -20 38 -7 20 -22 53 -35 72 -12
20 -26 51 -30 70 -4 19 -17 60 -29 90 -26 63 -40 102 -67 183 -10 31 -27 69
-38 85 -11 15 -25 47 -31 72 -7 25 -23 66 -38 93 l-25 47 -71 -2 c-39 -1 -105
-4 -147 -7z"/>
<path d="M8615 14375 c-22 -10 -78 -14 -200 -15 -223 0 -481 -18 -525 -36 -19
-7 -93 -19 -165 -24 -148 -13 -167 -16 -215 -42 -25 -13 -56 -18 -109 -18 -64
0 -78 -3 -99 -22 -19 -19 -37 -24 -105 -27 -61 -2 -87 -8 -108 -23 -16 -12
-51 -23 -86 -27 -46 -5 -60 -10 -67 -27 -8 -19 -20 -22 -90 -26 -56 -4 -92
-12 -116 -26 -19 -11 -53 -24 -75 -27 -22 -4 -56 -17 -75 -30 -19 -13 -51 -26
-71 -29 -21 -4 -49 -16 -63 -27 -15 -12 -51 -24 -81 -28 -30 -4 -63 -16 -74
-25 -11 -10 -39 -20 -63 -23 -24 -3 -55 -14 -69 -24 -14 -10 -38 -21 -55 -25
-37 -9 -180 -80 -189 -94 -3 -5 -21 -10 -38 -10 -41 0 -194 -63 -219 -90 -12
-13 -32 -20 -57 -20 -27 0 -76 -20 -182 -75 -79 -41 -158 -79 -175 -84 -18 -5
-60 -25 -95 -46 -34 -20 -90 -50 -123 -66 -97 -47 -140 -72 -192 -110 -27 -19
-65 -42 -84 -49 -19 -7 -42 -19 -50 -26 -8 -6 -33 -19 -54 -28 -21 -9 -57 -33
-80 -54 -23 -21 -57 -44 -76 -51 -19 -8 -55 -30 -80 -50 -24 -20 -61 -43 -81
-53 -20 -9 -54 -32 -76 -52 -22 -19 -59 -44 -84 -55 -24 -10 -69 -45 -99 -76
-30 -31 -77 -68 -105 -82 -27 -14 -83 -57 -123 -94 -39 -38 -77 -69 -82 -69
-6 0 -10 -9 -10 -20 0 -11 -7 -20 -15 -20 -34 0 -98 -43 -185 -125 -50 -47
-110 -95 -133 -106 -23 -12 -99 -76 -169 -143 -104 -98 -128 -126 -128 -148 0
-30 8 -33 65 -29 17 2 37 9 45 16 8 7 103 57 210 111 107 54 206 106 219 116
13 10 34 18 47 18 12 0 36 11 52 25 17 14 33 25 37 25 12 0 279 122 285 130 3
4 37 17 76 28 39 12 77 29 84 37 7 8 16 15 21 15 11 0 129 53 190 85 26 14 58
25 71 25 17 0 29 8 36 25 9 20 19 25 49 25 21 0 52 7 68 16 17 9 55 25 85 34
30 10 104 39 165 64 60 25 123 48 139 52 16 3 49 17 74 30 25 13 52 24 62 24
9 0 31 11 50 25 26 19 46 25 87 25 47 0 55 3 65 25 10 22 17 25 64 25 40 0 62
6 90 25 27 18 50 25 86 25 38 0 54 5 71 23 16 18 37 25 82 30 33 3 90 17 125
30 36 13 91 27 124 31 33 4 71 15 86 26 16 11 43 20 62 20 47 0 98 16 112 36
10 13 32 17 113 18 91 1 105 4 135 26 28 21 46 25 128 28 77 4 101 9 125 26
25 17 46 21 120 22 134 2 134 2 160 28 23 23 31 24 182 28 136 4 166 8 218 29
59 23 65 24 454 26 368 2 397 3 420 21 14 10 58 33 96 52 39 18 165 79 281
136 116 57 224 106 240 110 27 7 105 42 185 85 20 10 55 19 78 19 27 0 54 8
79 24 20 14 49 28 64 31 14 4 34 15 44 26 13 14 31 19 73 19 31 1 74 8 96 16
22 9 69 24 105 34 36 10 85 27 110 38 25 11 77 23 117 27 60 6 74 11 87 30 15
22 22 24 150 27 115 3 137 6 155 22 15 14 43 21 94 25 77 7 97 14 97 36 0 19
-25 31 -78 38 -24 3 -53 14 -64 24 -16 14 -42 19 -128 23 -90 4 -113 9 -137
26 -26 19 -46 22 -193 26 -146 4 -171 7 -215 28 -48 22 -65 23 -375 31 -237 6
-341 12 -385 23 -77 20 -277 20 -320 1z"/>
<path d="M21329 13954 c-12 -14 -14 -106 -14 -543 l0 -526 -24 -39 c-20 -31
-25 -57 -30 -135 -5 -76 -11 -104 -29 -133 -19 -30 -23 -49 -21 -99 2 -55 0
-64 -23 -84 -19 -16 -26 -34 -30 -71 -3 -27 -15 -71 -28 -99 -13 -27 -25 -72
-28 -100 -4 -36 -11 -54 -28 -68 -13 -10 -24 -28 -24 -40 0 -12 -11 -46 -25
-75 -14 -30 -25 -69 -25 -88 0 -27 -5 -37 -24 -45 -16 -8 -26 -23 -31 -47 -4
-20 -15 -48 -26 -63 -11 -15 -22 -42 -25 -61 -3 -18 -32 -87 -64 -153 -213
-441 -223 -460 -280 -525 -32 -36 -67 -83 -78 -105 -24 -47 -323 -346 -369
-369 -17 -8 -72 -51 -122 -95 -49 -44 -109 -90 -131 -101 -22 -11 -64 -42 -94
-69 -29 -26 -66 -51 -82 -55 -16 -4 -36 -13 -44 -20 -20 -18 -129 -73 -160
-82 -14 -3 -54 -24 -90 -45 -71 -41 -220 -109 -242 -109 -7 0 -33 -12 -57 -25
-24 -14 -63 -30 -87 -36 -23 -6 -50 -20 -60 -30 -14 -15 -31 -19 -89 -19 -61
0 -78 -4 -109 -25 -31 -21 -49 -25 -110 -25 -57 0 -82 -5 -117 -23 -37 -20
-65 -25 -173 -31 -95 -5 -141 -12 -174 -26 -37 -17 -67 -20 -180 -20 -150 0
-254 -14 -292 -39 -23 -14 -99 -16 -782 -19 -669 -2 -765 -1 -830 14 -40 9
-134 20 -208 25 -74 5 -146 11 -159 14 -42 10 -761 6 -921 -6 -85 -6 -195 -19
-245 -30 -74 -16 -132 -19 -320 -20 -182 0 -238 -3 -270 -15 -67 -26 -114 -33
-273 -40 -138 -6 -155 -9 -184 -31 -29 -21 -42 -23 -139 -23 -93 0 -114 -3
-161 -25 -45 -21 -68 -25 -148 -25 -83 0 -100 -3 -135 -25 -35 -21 -52 -24
-138 -25 -91 0 -99 -2 -121 -25 -19 -20 -33 -25 -72 -25 -74 -1 -133 -15 -148
-36 -10 -14 -30 -19 -82 -21 -91 -5 -106 -9 -133 -32 -15 -14 -45 -22 -90 -27
-56 -5 -69 -10 -77 -28 -8 -18 -19 -21 -71 -24 -50 -2 -65 -7 -77 -24 -12 -17
-29 -23 -78 -26 -47 -4 -70 -11 -91 -28 -20 -17 -41 -24 -71 -24 -29 0 -52 -8
-74 -24 -18 -13 -52 -26 -76 -29 -24 -4 -86 -28 -138 -55 -53 -27 -115 -52
-138 -56 -24 -4 -55 -15 -69 -25 -49 -34 -418 -231 -434 -231 -8 0 -29 -11
-45 -25 -17 -14 -34 -25 -39 -25 -18 0 -168 -83 -208 -115 -22 -18 -87 -55
-145 -84 -58 -28 -127 -67 -155 -86 -108 -74 -142 -97 -189 -128 -27 -18 -79
-52 -117 -77 -37 -25 -89 -58 -114 -75 -186 -121 -325 -216 -415 -286 -58 -44
-130 -94 -160 -109 -30 -16 -73 -47 -95 -70 -60 -63 -356 -296 -385 -303 -15
-4 -145 -123 -310 -285 -157 -153 -302 -288 -323 -301 -21 -13 -45 -37 -53
-53 -9 -17 -80 -97 -159 -178 -79 -81 -166 -183 -195 -225 -28 -42 -73 -100
-98 -128 -72 -79 -212 -260 -259 -334 -23 -36 -60 -87 -82 -114 -23 -26 -50
-68 -60 -92 -11 -24 -26 -47 -35 -50 -9 -4 -41 -46 -72 -94 -31 -48 -78 -115
-104 -148 -25 -33 -82 -112 -125 -175 -43 -63 -91 -131 -107 -151 -15 -20 -28
-49 -28 -63 0 -18 -15 -43 -44 -74 -26 -28 -48 -64 -55 -88 -6 -22 -20 -49
-31 -59 -25 -22 -26 -35 -2 -35 24 0 125 105 150 156 11 22 32 45 46 52 14 6
33 24 42 39 10 15 48 64 85 108 36 44 74 95 83 113 9 18 31 42 49 52 18 11 45
37 60 57 15 21 111 124 212 230 101 105 187 203 191 217 3 14 15 28 25 31 11
4 31 24 46 45 14 22 33 42 43 45 10 3 37 31 61 63 73 97 495 508 586 571 32
21 108 86 169 143 62 58 129 113 150 123 22 10 68 46 104 80 36 35 97 83 135
107 39 25 90 62 115 82 25 21 95 67 155 103 61 35 126 80 145 98 19 19 53 41
75 51 21 9 56 30 76 48 45 38 170 113 202 121 12 3 49 28 81 56 32 27 62 49
67 49 15 0 157 69 164 79 3 5 27 17 53 25 30 10 64 33 91 60 29 30 55 46 80
51 20 3 65 23 101 44 66 39 90 52 242 127 48 24 139 72 201 107 156 89 279
150 367 181 41 15 82 33 90 40 8 8 26 17 38 21 54 16 154 69 165 86 7 11 20
19 29 19 28 0 23 -67 -8 -126 -14 -26 -30 -73 -35 -102 -4 -30 -16 -66 -26
-81 -10 -14 -20 -51 -23 -81 -4 -45 -9 -57 -27 -65 -13 -5 -23 -19 -23 -30 0
-11 -11 -43 -24 -71 -13 -28 -27 -71 -31 -95 -4 -24 -18 -58 -31 -75 -13 -17
-24 -40 -24 -51 0 -11 -9 -32 -20 -46 -11 -14 -25 -49 -30 -78 -6 -30 -21 -70
-35 -91 -48 -72 -184 -319 -229 -414 -13 -28 -28 -54 -34 -58 -6 -3 -13 -20
-17 -36 -4 -17 -23 -49 -42 -73 -47 -54 -270 -391 -279 -419 -3 -12 -31 -50
-60 -85 -30 -35 -54 -70 -54 -79 0 -9 -25 -43 -55 -76 -31 -33 -65 -78 -77
-101 -11 -23 -45 -68 -74 -100 -35 -38 -54 -67 -54 -83 0 -16 -16 -43 -44 -72
-24 -26 -65 -81 -92 -122 -26 -41 -73 -102 -104 -136 -30 -33 -67 -83 -83
-110 -15 -27 -39 -64 -52 -83 -14 -19 -25 -38 -25 -42 0 -13 24 -11 56 6 16 8
37 15 46 15 9 0 40 22 70 48 29 27 69 54 88 61 19 6 52 28 72 48 21 21 68 53
105 73 47 24 73 45 83 66 9 17 21 29 27 27 6 -2 23 7 37 21 14 15 34 26 46 26
11 0 42 20 69 45 26 24 83 67 126 96 43 28 103 75 134 104 31 29 74 62 96 73
22 11 72 49 110 84 39 36 99 84 135 108 36 23 92 69 125 100 33 32 86 74 118
93 32 19 98 70 145 114 48 43 105 90 127 103 22 13 117 96 210 185 94 88 182
166 197 172 15 7 36 30 47 52 23 43 86 101 113 101 16 0 80 70 128 140 14 19
103 116 198 215 126 130 180 194 197 230 12 28 43 68 68 91 25 23 59 66 76 96
17 31 54 81 82 113 29 33 48 63 45 72 -4 8 13 34 39 62 25 26 51 66 59 88 8
22 26 52 40 66 14 14 26 36 26 47 0 12 11 38 25 58 14 20 25 44 25 52 0 8 11
32 25 52 14 20 25 43 25 50 0 7 11 31 25 53 15 25 24 55 25 81 0 27 8 51 25
74 22 29 25 45 25 110 0 82 9 100 48 100 13 0 56 11 95 24 51 17 102 25 173
29 85 3 105 7 131 27 26 18 46 23 115 25 68 3 91 8 129 29 44 25 54 26 170 25
114 -2 128 0 169 22 42 22 58 24 260 29 193 5 219 8 255 27 40 21 49 21 825
24 432 2 1030 0 1330 -5 578 -9 779 -2 861 30 33 13 94 19 244 24 207 8 244
13 283 38 17 11 67 17 176 22 132 6 158 10 182 27 24 17 48 22 136 25 92 3
110 6 130 25 19 17 38 22 105 25 66 2 86 7 105 24 17 16 42 23 92 28 39 4 86
15 105 25 20 10 86 35 148 55 62 20 129 47 149 61 20 14 48 25 62 25 29 0 271
117 402 193 47 28 122 81 167 119 46 38 110 87 143 109 84 56 193 161 248 239
26 36 77 99 114 140 38 41 83 99 100 130 17 30 48 75 68 100 21 25 46 61 55
80 9 19 32 51 51 70 28 30 174 299 174 321 0 4 18 38 40 76 38 65 90 167 125
243 8 19 22 46 30 60 8 14 15 43 15 64 0 27 7 47 22 63 16 17 24 42 29 89 4
44 12 69 24 78 14 10 18 34 23 125 4 103 7 116 31 144 l26 31 -1 687 -1 687
-27 53 c-25 51 -26 60 -26 216 0 150 -1 163 -19 173 -11 6 -26 31 -33 57 -15
51 -36 65 -59 37z m-13909 -8318 c0 -2 -8 -10 -17 -17 -16 -13 -17 -12 -4 4
13 16 21 21 21 13z m-50 -39 c0 -2 -17 -19 -37 -38 l-38 -34 34 38 c33 34 41
42 41 34z m-120 -121 c0 -2 -8 -10 -17 -17 -16 -13 -17 -12 -4 4 13 16 21 21
21 13z m-50 -59 c0 -2 -12 -14 -27 -28 l-28 -24 24 28 c23 25 31 32 31 24z
m-90 -100 c0 -2 -10 -12 -22 -23 l-23 -19 19 23 c18 21 26 27 26 19z m-50 -61
c0 -2 -8 -10 -17 -17 -16 -13 -17 -12 -4 4 13 16 21 21 21 13z"/>
<path d="M16150 6171 c0 -4 19 -11 41 -14 62 -8 66 -17 42 -95 -18 -60 -92
-260 -100 -271 -2 -3 -19 11 -39 30 -35 33 -37 34 -122 34 -78 0 -93 -3 -140
-30 -136 -75 -242 -256 -242 -413 0 -114 54 -173 165 -180 55 -4 70 -1 107 21
24 14 58 44 77 67 l34 43 18 -49 c21 -55 37 -70 90 -84 52 -14 125 10 183 61
46 41 126 148 126 168 0 27 -21 5 -68 -69 -36 -57 -61 -85 -86 -97 -20 -9 -38
-14 -41 -11 -13 13 29 128 179 497 86 212 156 388 156 393 0 4 -85 8 -190 8
-104 0 -190 -4 -190 -9z m-63 -423 c-17 -158 -156 -442 -232 -474 -75 -31 -80
-16 -34 111 36 99 157 347 189 388 15 19 31 27 52 27 l31 0 -6 -52z"/>
<path d="M14158 6133 c-14 -16 -39 -49 -56 -75 -18 -25 -53 -64 -79 -87 -26
-22 -44 -43 -40 -47 20 -21 251 78 286 122 43 54 16 114 -50 114 -26 0 -42 -8
-61 -27z"/>
<path d="M11040 6116 c0 -12 10 -16 34 -16 19 0 47 -5 62 -10 24 -10 26 -14
20 -49 -8 -49 -72 -221 -197 -526 -111 -270 -123 -288 -207 -299 -29 -4 -52
-11 -52 -16 0 -6 116 -10 305 -10 292 0 382 9 239 25 l-66 7 5 33 c6 38 133
363 149 382 12 15 86 17 122 3 22 -8 26 -16 26 -47 0 -21 -9 -71 -20 -112 -31
-117 -23 -184 31 -246 105 -120 381 -63 445 92 30 72 7 87 -26 18 -29 -60 -84
-118 -107 -113 -14 3 -18 12 -16 43 2 22 4 86 5 142 4 121 -4 135 -100 199
l-62 41 62 7 c254 26 376 280 195 403 -76 51 -110 55 -494 60 -317 4 -353 3
-353 -11z m590 -44 c68 -55 4 -278 -105 -364 -23 -18 -45 -24 -104 -27 -68 -3
-74 -2 -68 15 3 11 37 96 75 189 38 94 72 178 75 188 9 24 96 24 127 -1z"/>
<path d="M12540 6115 c0 -11 11 -15 38 -15 59 0 66 -9 53 -68 -5 -27 -32 -104
-59 -171 -43 -104 -51 -119 -63 -105 -7 8 -31 25 -53 36 -90 46 -232 4 -335
-100 -91 -90 -141 -209 -141 -334 0 -120 48 -170 167 -177 82 -4 109 8 178 78
l39 41 21 -42 c29 -60 65 -83 128 -82 57 0 98 18 153 66 50 44 116 144 112
170 -2 17 -15 4 -57 -61 -55 -84 -92 -121 -119 -121 -29 0 -4 75 158 475 89
220 164 406 167 413 4 9 -38 12 -191 12 -168 0 -196 -2 -196 -15z m-58 -401
c-16 -155 -147 -437 -224 -484 -36 -22 -78 -27 -78 -9 0 44 155 404 203 473
20 28 73 58 92 52 6 -1 9 -16 7 -32z"/>
<path d="M14494 5975 l-49 -125 -56 0 c-43 0 -58 -4 -63 -16 -10 -26 2 -34 50
-34 24 0 44 -3 44 -6 0 -4 -32 -83 -72 -178 -82 -197 -95 -266 -59 -323 50
-80 175 -88 269 -17 48 37 114 129 110 154 -2 17 -11 9 -45 -43 -45 -69 -104
-127 -128 -127 -31 0 -12 71 79 300 l94 235 63 3 c60 3 99 20 99 44 0 4 -29 8
-65 8 -36 0 -65 2 -65 5 0 3 20 56 45 117 25 62 45 116 45 120 0 4 -56 8 -123
8 l-124 0 -49 -125z"/>
<path d="M13960 5847 c-82 -23 -144 -61 -213 -129 -78 -77 -116 -150 -124
-237 -9 -99 33 -177 121 -224 56 -30 222 -32 276 -3 56 30 150 116 150 137 0
10 -2 19 -4 19 -3 0 -29 -24 -58 -53 -54 -54 -102 -82 -157 -93 -23 -5 -35 -1
-55 19 -23 23 -26 34 -26 94 0 37 3 85 6 106 6 35 8 37 46 37 102 0 259 51
316 104 81 73 63 169 -40 211 -56 22 -180 29 -238 12z m147 -61 c-10 -97 -65
-178 -150 -221 -70 -35 -72 -20 -11 95 66 124 111 176 158 179 5 1 6 -23 3
-53z"/>
<path d="M14904 5841 c-43 -20 -100 -80 -141 -148 -43 -74 -19 -71 30 3 41 62
119 135 132 123 12 -12 -23 -105 -80 -213 -78 -147 -101 -241 -72 -301 35 -72
142 -99 227 -55 41 21 109 102 131 155 12 30 12 29 20 -33 11 -88 17 -101 52
-123 42 -25 116 -25 166 1 48 24 119 102 150 164 38 77 16 64 -40 -23 -49 -78
-86 -111 -124 -111 -13 0 -15 6 -10 33 4 17 15 48 25 67 25 50 186 420 194
448 l8 23 -126 -3 -126 -3 -93 -200 c-129 -276 -194 -375 -248 -375 -33 0 -22
45 39 163 32 61 69 139 81 172 29 77 32 162 8 199 -36 55 -127 71 -203 37z"/>
<path d="M16760 5846 c-125 -36 -242 -132 -296 -241 -37 -77 -46 -199 -17
-255 22 -42 90 -96 141 -110 136 -38 311 23 371 130 24 43 12 56 -15 15 -25
-38 -131 -113 -170 -121 -72 -13 -111 49 -101 160 9 93 6 90 110 103 114 14
194 44 252 95 92 81 81 167 -29 213 -52 22 -189 28 -246 11z m156 -52 c-13
-100 -74 -187 -159 -230 -27 -14 -51 -23 -54 -20 -8 8 79 184 116 234 30 41
58 60 90 61 11 1 12 -9 7 -45z"/>
<path d="M17353 5850 c-60 -14 -108 -46 -140 -94 -81 -119 -70 -173 58 -295
85 -81 89 -87 89 -127 0 -74 -58 -100 -166 -73 -35 9 -44 16 -44 33 0 16 9 24
33 31 59 18 72 91 26 150 -17 21 -29 25 -70 25 -72 0 -99 -29 -99 -106 0 -52
3 -59 38 -94 99 -99 347 -94 445 9 35 39 37 43 37 110 0 39 -5 82 -12 96 -6
13 -45 53 -86 87 -83 69 -112 108 -112 155 0 51 37 73 121 73 62 0 69 -2 69
-20 0 -14 -7 -20 -21 -20 -55 0 -87 -49 -69 -106 21 -63 84 -90 143 -63 48 22
61 97 28 159 -28 54 -82 80 -166 79 -38 -1 -84 -4 -102 -9z"/>
<path d="M13162 5795 c-136 -38 -259 -131 -309 -233 -24 -50 -28 -69 -28 -149
0 -85 2 -94 30 -134 70 -100 243 -134 371 -73 69 33 160 131 141 151 -3 3 -32
-22 -64 -55 -70 -71 -122 -93 -173 -72 -87 36 -81 198 15 396 47 98 98 154
140 154 32 0 31 -5 -5 -60 -36 -54 -39 -98 -7 -128 76 -72 182 -39 201 63 9
48 -18 103 -63 129 -45 26 -175 32 -249 11z"/>
</g>
</svg>
