<?xml version="1.0" standalone="no"?>
<!DOCTYPE svg PUBLIC "-//W3C//DTD SVG 20010904//EN"
 "http://www.w3.org/TR/2001/REC-SVG-20010904/DTD/svg10.dtd">
<svg version="1.0" xmlns="http://www.w3.org/2000/svg"
 width="700.000000pt" height="700.000000pt" viewBox="0 0 700.000000 700.000000"
 preserveAspectRatio="xMidYMid meet">
<metadata>
Created by potrace 1.11, written by Peter Selinger 2001-2013
</metadata>
<g transform="translate(0.000000,700.000000) scale(0.100000,-0.100000)"
fill="#000000" stroke="none">
<path d="M3363 5588 c-34 -4 -97 -16 -140 -28 -62 -18 -736 -223 -933 -284
-25 -8 -376 -116 -780 -241 -1276 -393 -1333 -411 -1393 -442 -35 -18 -93
-106 -105 -159 -20 -89 5 -180 65 -240 47 -48 50 -49 411 -164 89 -28 162 -55
162 -60 0 -9 -8 -30 -36 -95 -11 -27 -42 -128 -48 -159 -15 -68 -24 -127 -32
-197 -6 -52 -10 -60 -70 -118 -73 -73 -103 -137 -108 -235 -5 -112 28 -190
120 -279 l47 -46 -6 -78 c-3 -43 -11 -101 -16 -129 -5 -28 -12 -80 -16 -115
-3 -35 -7 -71 -10 -79 -2 -8 -6 -37 -10 -65 -5 -43 -19 -153 -41 -320 -3 -22
-7 -51 -9 -65 -2 -14 -7 -50 -11 -80 -4 -30 -8 -64 -10 -75 -1 -11 -5 -40 -8
-65 -4 -25 -11 -81 -17 -125 -7 -44 -12 -106 -12 -138 1 -82 14 -93 111 -97
162 -5 534 -5 544 1 15 10 35 77 33 112 -3 40 -14 134 -20 167 -2 14 -7 45
-10 70 -3 25 -8 63 -11 85 -9 64 -12 87 -19 145 -4 30 -9 62 -10 70 -1 8 -6
46 -10 85 -4 38 -8 72 -10 75 -1 3 -6 36 -10 75 -4 38 -8 72 -10 75 -2 3 -6
30 -9 60 -7 57 -8 67 -25 198 -6 42 -13 102 -17 132 -3 30 -7 61 -9 67 -3 7 3
19 11 25 134 108 184 238 148 382 -17 66 -43 111 -103 176 -40 43 -43 51 -43
95 0 125 97 377 139 361 19 -8 594 -187 613 -191 13 -3 552 -169 680 -210 103
-32 552 -169 640 -195 52 -15 147 -44 210 -63 149 -46 179 -50 335 -50 100 0
150 6 219 23 49 12 94 23 100 24 12 3 91 27 306 93 80 24 152 46 160 48 8 2
34 10 58 19 23 8 43 15 45 14 1 -1 54 15 117 35 148 46 1046 323 1125 347 33
10 128 39 210 65 83 26 166 51 185 57 19 5 107 32 195 60 88 27 230 71 315 98
376 116 396 128 442 258 31 88 7 192 -61 261 -38 39 -60 48 -244 107 -227 72
-485 153 -512 160 -5 1 -75 23 -155 47 -80 25 -212 66 -295 92 -82 25 -206 64
-275 85 -69 21 -177 55 -240 74 -131 40 -817 249 -990 302 -394 121 -508 154
-549 159 -73 9 -230 11 -298 3z"/>
<path d="M1446 3343 c-2 -10 -7 -40 -11 -68 -3 -27 -10 -77 -15 -110 -5 -33
-12 -80 -15 -105 -7 -54 -13 -87 -25 -160 -5 -30 -12 -77 -16 -105 -3 -27 -14
-97 -24 -155 -10 -58 -17 -144 -16 -191 1 -78 4 -90 31 -129 88 -128 278 -251
505 -330 36 -12 74 -26 85 -30 104 -43 446 -119 660 -146 22 -3 51 -7 65 -10
62 -10 181 -24 240 -29 264 -22 948 -22 1165 -1 172 17 213 22 300 36 33 5 83
12 110 15 131 17 601 132 630 155 5 4 28 13 50 20 69 21 268 121 325 164 76
55 145 130 170 184 21 43 28 130 16 192 -3 14 -7 41 -10 60 -3 19 -14 96 -26
170 -11 74 -23 149 -25 165 -10 70 -16 114 -26 175 -6 36 -12 80 -15 99 -13
98 -24 151 -32 151 -13 0 -86 -21 -227 -65 -77 -24 -194 -60 -260 -80 -66 -20
-163 -50 -215 -67 -52 -16 -102 -31 -110 -33 -8 -3 -60 -18 -115 -35 -484
-151 -797 -242 -915 -265 -31 -7 -358 -8 -385 -2 -11 3 -40 8 -65 12 -25 3
-58 10 -75 15 -16 5 -64 19 -105 30 -41 12 -131 39 -200 61 -69 21 -163 50
-210 65 -134 41 -440 134 -490 149 -52 15 -227 69 -485 149 -222 69 -232 71
-239 49z"/>
</g>
</svg>
