<?xml version="1.0" standalone="no"?>
<!DOCTYPE svg PUBLIC "-//W3C//DTD SVG 20010904//EN"
 "http://www.w3.org/TR/2001/REC-SVG-20010904/DTD/svg10.dtd">
<svg version="1.0" xmlns="http://www.w3.org/2000/svg"
 width="1754.000000pt" height="1754.000000pt" viewBox="0 0 1754.000000 1754.000000"
 preserveAspectRatio="xMidYMid meet">
<metadata>
Created by potrace 1.11, written by Peter Selinger 2001-2013
</metadata>
<g transform="translate(0.000000,1754.000000) scale(0.100000,-0.100000)"
fill="#000000" stroke="none">
<path d="M10835 13884 c-5 -2 -44 -10 -85 -19 -193 -37 -238 -47 -280 -60 -25
-8 -74 -19 -110 -24 -36 -6 -90 -18 -120 -26 -30 -8 -66 -15 -80 -15 -14 0
-54 -9 -88 -20 -35 -11 -79 -20 -98 -20 -19 0 -50 -7 -69 -14 -19 -8 -68 -20
-107 -25 -40 -6 -91 -17 -113 -25 -22 -9 -54 -15 -71 -16 -17 0 -53 -7 -80
-15 -27 -9 -72 -20 -100 -25 -29 -5 -69 -22 -95 -39 -108 -77 -145 -102 -163
-114 -10 -7 -31 -21 -45 -32 -14 -11 -46 -34 -71 -50 -25 -17 -67 -47 -95 -67
-27 -21 -54 -38 -58 -38 -5 0 -27 -15 -50 -33 -23 -18 -52 -40 -63 -48 -12 -8
-62 -41 -110 -73 -49 -33 -93 -64 -99 -70 -5 -6 -36 -29 -69 -51 -59 -40 -212
-145 -276 -190 -152 -105 -205 -142 -277 -191 -80 -54 -93 -72 -75 -102 7 -10
19 -11 53 -3 24 5 71 12 105 16 69 7 91 -6 79 -47 -8 -25 -15 -34 -71 -88 -59
-58 -71 -68 -96 -75 -12 -4 -37 -16 -54 -26 -17 -11 -38 -19 -47 -19 -8 0 -34
-9 -58 -20 -24 -11 -58 -20 -74 -20 -17 0 -55 -8 -85 -19 -80 -27 -275 -47
-295 -31 -8 7 -15 18 -15 25 0 16 -71 65 -96 65 -10 0 -39 10 -64 22 -36 17
-65 21 -142 22 -94 1 -98 0 -127 -28 -24 -23 -29 -35 -24 -55 20 -79 248 -182
368 -166 28 4 91 10 140 15 272 24 399 49 510 102 58 27 52 23 130 86 76 62
147 140 197 219 46 71 47 71 205 83 62 5 117 11 121 14 5 3 79 12 164 21 84 8
169 20 188 25 19 6 55 10 81 10 47 0 67 -16 109 -91 30 -52 61 -105 80 -134
11 -16 27 -44 35 -62 8 -17 19 -34 25 -38 5 -3 19 -27 30 -53 20 -44 20 -48 4
-82 -89 -187 -99 -230 -99 -435 0 -162 2 -186 23 -243 12 -34 22 -69 22 -77 0
-8 21 -54 46 -102 50 -95 139 -211 219 -284 58 -53 171 -133 202 -143 12 -4
27 -13 33 -21 7 -8 20 -15 29 -15 9 0 32 -8 51 -18 41 -22 214 -47 320 -47
114 1 290 24 335 45 22 10 67 30 100 46 33 15 78 41 100 58 22 17 60 45 85 61
71 47 136 119 220 245 27 41 50 82 50 90 0 9 6 24 14 35 7 11 25 66 40 122 34
134 37 342 6 468 -11 44 -20 90 -20 101 0 12 -9 33 -20 47 -11 14 -20 32 -20
40 0 8 -9 26 -20 40 -11 14 -20 29 -20 33 0 34 -212 283 -242 284 -3 0 -20 11
-37 26 -36 30 -199 114 -223 114 -30 0 -77 49 -84 88 -4 20 -15 54 -25 74 -11
21 -19 48 -19 60 -1 13 -9 41 -20 63 -11 22 -20 49 -20 60 0 11 -9 39 -20 62
-10 23 -22 62 -25 86 -7 43 -5 46 46 103 29 33 134 141 233 242 301 305 376
383 376 392 0 9 -40 41 -50 39 -3 0 -9 -2 -15 -5z"/>
<path d="M13050 12675 c-30 -7 -68 -14 -85 -14 -36 -2 -180 -50 -215 -72 -14
-9 -44 -27 -67 -41 -53 -30 -138 -102 -220 -185 -95 -96 -95 -91 0 -153 45
-29 108 -70 140 -91 32 -22 60 -39 63 -39 4 0 20 -11 38 -25 17 -14 40 -33 51
-41 88 -65 160 -126 220 -183 100 -96 298 -309 312 -334 20 -38 -6 -71 -201
-242 -37 -33 -82 -73 -100 -89 -17 -15 -42 -35 -56 -44 -14 -9 -54 -39 -90
-67 -56 -43 -141 -104 -198 -140 -101 -64 -142 -89 -222 -132 -19 -11 -66 -37
-105 -58 -38 -22 -90 -50 -115 -62 -25 -13 -52 -28 -60 -33 -8 -6 -26 -14 -40
-20 -14 -5 -32 -14 -40 -20 -8 -5 -44 -23 -80 -40 -36 -17 -72 -35 -80 -40
-34 -20 -211 -100 -222 -100 -6 0 -29 -8 -52 -19 -72 -33 -150 -60 -196 -70
-159 -32 -203 -40 -275 -51 -117 -19 -520 -25 -586 -10 -30 7 -88 18 -129 25
-99 16 -281 63 -375 96 -16 6 -54 17 -83 24 -30 8 -62 21 -71 29 -10 9 -26 16
-35 16 -10 0 -29 9 -43 20 -14 11 -32 20 -40 20 -9 0 -32 9 -52 19 -20 11
-124 63 -231 116 -200 100 -234 117 -260 134 -101 69 -156 102 -175 107 -13 3
-29 12 -36 20 -6 8 -16 14 -21 14 -11 0 -142 55 -180 75 -14 8 -34 15 -44 15
-10 0 -36 9 -58 19 -89 42 -236 73 -291 60 -81 -17 -201 -48 -245 -62 -137
-45 -177 -57 -195 -57 -11 -1 -38 -9 -60 -20 -22 -11 -49 -19 -60 -20 -11 0
-37 -9 -58 -20 -20 -11 -43 -20 -50 -20 -7 0 -28 -8 -47 -18 -19 -11 -48 -22
-64 -26 -34 -8 -359 -167 -471 -231 -44 -25 -91 -51 -105 -58 -23 -11 -131
-80 -172 -110 -10 -6 -34 -23 -53 -37 -31 -22 -147 -110 -225 -171 -111 -87
-368 -349 -451 -459 -23 -30 -44 -57 -48 -60 -9 -7 -89 -109 -121 -155 -14
-19 -32 -44 -40 -55 -8 -11 -26 -36 -40 -55 -14 -20 -42 -58 -62 -85 -21 -27
-38 -52 -38 -55 0 -4 -19 -34 -42 -69 -24 -34 -47 -69 -53 -78 -5 -9 -25 -37
-42 -62 -18 -26 -33 -49 -33 -51 0 -2 -19 -33 -42 -67 -23 -35 -51 -79 -63
-98 -12 -19 -30 -48 -41 -65 -34 -54 -39 -62 -62 -101 -34 -58 -41 -70 -122
-192 -41 -63 -80 -122 -86 -133 -6 -10 -18 -27 -27 -37 -10 -10 -17 -21 -17
-25 0 -10 -127 -175 -174 -227 -23 -25 -59 -68 -81 -95 -103 -127 -312 -339
-395 -402 -30 -23 -70 -55 -89 -72 -58 -52 -317 -226 -353 -237 -13 -3 -30
-12 -38 -19 -8 -7 -26 -16 -40 -20 -14 -4 -31 -12 -38 -18 -19 -15 -150 -67
-170 -67 -9 -1 -35 -9 -57 -20 -22 -11 -49 -20 -60 -20 -11 -1 -38 -7 -60 -15
-22 -9 -84 -22 -139 -30 -54 -9 -102 -18 -106 -20 -5 -3 -80 -10 -167 -16 -87
-5 -203 -16 -258 -24 -55 -8 -225 -18 -378 -21 -153 -4 -280 -10 -282 -14 -5
-8 87 -70 102 -70 6 0 18 -9 28 -20 10 -11 22 -20 27 -20 13 0 169 -91 301
-175 18 -11 86 -44 152 -74 66 -29 132 -59 147 -67 14 -8 34 -14 43 -14 10 0
36 -8 59 -19 58 -26 146 -59 181 -67 17 -4 41 -13 55 -20 23 -12 60 -23 180
-54 25 -6 74 -20 110 -30 93 -27 186 -50 251 -60 75 -12 106 -25 118 -49 12
-22 8 -25 -144 -123 -44 -28 -97 -63 -118 -77 -20 -14 -52 -35 -71 -46 -19
-11 -55 -35 -80 -52 -26 -18 -49 -33 -52 -33 -3 0 -17 -8 -32 -19 -23 -15
-107 -69 -187 -119 -11 -7 -33 -19 -50 -28 -16 -8 -48 -26 -70 -40 -22 -13
-58 -33 -80 -44 -22 -11 -58 -31 -80 -45 -22 -13 -51 -29 -65 -34 -14 -6 -32
-16 -40 -21 -8 -6 -28 -17 -45 -26 -16 -8 -66 -35 -110 -59 -169 -92 -546
-275 -566 -275 -5 0 -27 -9 -47 -19 -20 -10 -53 -24 -72 -31 -82 -29 -117 -41
-145 -54 -16 -8 -57 -24 -90 -35 -33 -12 -82 -31 -110 -42 -27 -12 -63 -24
-80 -29 -16 -4 -43 -15 -60 -24 -16 -9 -39 -16 -50 -16 -11 0 -38 -9 -60 -20
-22 -11 -51 -20 -65 -20 -14 0 -43 -9 -65 -20 -22 -11 -50 -19 -62 -20 -12 0
-44 -8 -70 -19 -26 -10 -68 -22 -93 -26 -25 -4 -56 -13 -70 -20 -14 -7 -47
-16 -75 -20 -27 -4 -59 -12 -70 -18 -11 -6 -47 -16 -80 -23 -69 -15 -167 -41
-210 -56 -16 -6 -64 -18 -105 -28 -107 -26 -157 -40 -226 -61 -33 -11 -67 -19
-75 -19 -8 0 -31 -5 -52 -11 -31 -8 -38 -14 -35 -32 3 -22 4 -22 208 -21 307
2 847 23 1000 39 74 7 185 17 245 20 61 4 146 13 190 20 44 8 116 17 160 20
44 4 117 16 161 26 45 10 97 19 116 19 19 0 68 9 109 19 41 11 99 23 129 27
30 4 66 11 80 16 14 6 59 16 100 23 74 14 131 28 260 65 36 10 83 23 105 28
22 6 72 20 110 32 39 12 95 28 125 36 30 8 66 21 80 28 14 7 43 17 65 21 21 3
51 13 65 20 14 7 44 17 65 21 22 4 56 15 75 25 19 11 43 19 53 19 10 0 35 9
57 20 22 11 45 20 52 20 7 0 30 9 51 20 20 11 42 20 48 20 5 0 36 12 67 26 31
14 77 35 102 46 25 11 65 29 90 40 25 12 59 26 75 33 17 7 55 25 86 39 31 14
62 26 68 26 7 0 25 8 39 19 15 10 38 22 52 26 14 4 30 11 36 16 6 5 43 26 82
47 71 37 192 107 247 142 53 33 126 70 141 70 19 0 18 -19 -1 -26 -8 -4 -15
-11 -15 -17 0 -6 -7 -19 -17 -29 -29 -32 -68 -106 -61 -113 3 -3 156 144 340
327 366 365 497 489 633 600 50 40 108 90 130 111 22 20 43 37 47 37 4 0 33
21 65 47 32 26 87 67 122 90 35 24 69 49 75 56 16 19 211 147 224 147 6 0 15
6 19 13 10 16 86 67 99 67 6 0 19 9 29 20 10 11 22 20 27 20 7 0 86 44 222
125 75 44 166 96 212 120 27 15 85 46 129 70 123 67 380 195 392 195 6 0 16 6
22 14 7 8 23 17 38 21 14 3 64 24 112 46 47 22 106 49 131 61 25 11 62 29 82
39 20 11 43 19 50 19 7 0 31 9 53 19 61 29 124 53 345 134 30 11 71 25 90 32
19 7 76 25 125 40 50 15 115 35 145 45 30 10 78 22 105 28 28 6 68 15 90 21
22 6 85 20 140 32 55 12 125 28 155 36 30 7 89 18 130 24 41 5 107 16 145 24
39 8 104 17 145 20 41 4 107 12 145 20 39 7 120 16 180 20 61 3 178 13 260 22
227 23 1029 23 1225 1 80 -9 213 -20 295 -23 83 -3 191 -12 240 -20 50 -7 137
-16 195 -20 58 -3 146 -13 195 -20 76 -12 646 -40 785 -39 154 1 600 27 675
39 50 8 125 19 169 25 43 5 82 13 87 16 6 3 45 12 87 19 42 7 109 21 147 30
97 24 385 116 390 125 3 4 17 11 32 14 16 4 46 15 68 26 22 10 51 23 65 29 14
6 42 21 62 34 20 12 63 37 95 56 32 19 79 52 104 73 26 21 49 38 52 38 19 0
396 373 473 469 113 139 234 312 261 374 7 15 17 27 22 27 5 0 12 12 16 27 3
14 15 38 26 51 10 14 19 31 19 39 0 8 9 26 20 40 11 14 20 33 20 43 0 10 9 29
20 43 11 14 20 34 20 44 0 10 8 35 18 55 40 78 88 262 107 413 8 61 20 135 26
165 14 69 24 439 13 477 -7 26 -8 24 -15 -22 -4 -27 -8 -93 -8 -145 -1 -52 -6
-113 -12 -135 -6 -22 -15 -67 -21 -100 -5 -33 -18 -89 -28 -125 -11 -36 -22
-83 -25 -104 -4 -22 -13 -49 -21 -60 -8 -11 -14 -30 -14 -41 0 -11 -11 -41
-25 -67 -14 -26 -25 -52 -25 -58 0 -18 -57 -137 -69 -144 -6 -4 -11 -15 -11
-25 0 -10 -9 -28 -20 -41 -11 -13 -20 -28 -20 -34 0 -6 -17 -36 -38 -66 -21
-30 -41 -62 -44 -71 -3 -8 -48 -70 -99 -138 -52 -67 -101 -133 -109 -145 -36
-56 -434 -466 -451 -466 -4 0 -31 -19 -61 -43 -54 -43 -91 -69 -140 -97 -15
-8 -63 -36 -107 -62 -44 -25 -91 -49 -103 -53 -37 -11 -141 -52 -173 -69 -17
-9 -41 -16 -53 -16 -13 0 -38 -6 -55 -14 -52 -23 -200 -66 -227 -66 -14 0 -52
-9 -85 -19 -33 -10 -87 -22 -120 -26 -33 -4 -82 -13 -110 -21 -27 -7 -108 -18
-180 -24 -71 -6 -168 -15 -215 -20 -111 -13 -691 -13 -845 0 -66 6 -216 17
-333 25 -117 8 -218 17 -223 20 -5 4 -91 13 -192 21 -100 8 -203 18 -228 24
-45 9 -121 15 -564 42 -297 18 -607 17 -800 -4 -586 -64 -867 -100 -950 -124
-27 -7 -81 -18 -120 -23 -74 -9 -177 -32 -260 -57 -27 -8 -77 -21 -110 -29
-33 -7 -81 -19 -107 -26 -41 -11 -54 -10 -110 9 -35 11 -89 23 -122 27 -32 4
-79 13 -103 20 -25 8 -75 17 -111 20 -37 4 -93 13 -126 21 -32 9 -97 18 -145
21 -119 8 -120 9 -109 80 5 32 15 67 22 78 7 11 17 36 21 55 4 19 16 51 26 70
11 19 19 42 19 52 0 9 4 20 10 23 5 3 28 43 50 88 23 45 49 96 60 112 11 17
27 44 37 61 47 83 305 344 339 344 5 0 34 17 64 38 30 20 66 43 80 50 14 7 43
23 65 36 22 13 87 49 145 79 58 30 119 61 135 70 17 9 52 26 79 38 52 22 52
22 181 -10 220 -54 347 -77 530 -96 77 -8 165 -20 195 -27 38 -9 163 -13 405
-13 300 0 358 3 405 17 31 10 83 20 115 24 33 3 93 15 134 25 41 10 89 19 105
19 17 1 49 9 71 20 22 11 48 19 57 20 16 0 48 13 153 61 22 10 67 30 100 44
71 31 127 60 175 92 19 13 44 29 54 36 11 6 33 24 50 38 17 15 49 39 71 53 22
15 56 41 75 57 19 16 53 42 75 59 41 31 102 82 146 122 14 13 64 57 110 98
242 216 317 293 502 516 7 8 19 23 28 32 8 9 22 28 32 42 9 14 34 50 56 80 23
30 50 71 61 90 11 19 34 55 50 80 16 25 45 77 64 115 19 39 45 80 59 93 l23
22 32 -39 c18 -22 32 -44 32 -49 0 -5 6 -14 13 -20 12 -10 89 -159 123 -237
44 -103 82 -220 105 -325 5 -25 17 -76 26 -115 9 -38 19 -106 22 -150 l6 -80
54 -3 c30 -2 73 4 99 13 26 8 78 18 117 22 38 3 92 14 118 24 26 11 56 19 66
19 10 0 24 7 31 16 8 8 27 21 44 28 73 30 245 243 238 294 -2 12 -7 22 -11 22
-24 0 -233 191 -471 430 -122 121 -255 278 -315 370 -16 25 -34 50 -40 55 -5
6 -16 21 -23 35 -7 14 -26 45 -42 70 -16 25 -36 59 -44 75 -9 17 -20 37 -25
45 -5 8 -14 26 -20 40 -6 14 -22 43 -36 65 -13 22 -27 47 -31 55 -3 8 -15 35
-26 60 -45 102 -71 157 -89 192 -10 20 -19 43 -19 50 0 7 -6 25 -14 40 -8 14
-19 43 -26 65 -7 21 -19 47 -26 58 -8 11 -14 26 -14 35 0 8 -14 52 -32 98
l-32 82 -40 -1 c-23 -1 -66 -7 -96 -14z"/>
<path d="M16431 11340 c-9 -221 -9 -301 -2 -330 8 -30 9 -22 11 50 6 187 5
256 -1 280 l-7 25 -1 -25z"/>
<path d="M6630 11280 c-96 -5 -201 -13 -234 -19 -32 -6 -111 -13 -175 -17 -64
-3 -153 -15 -197 -25 -45 -10 -91 -19 -103 -19 -12 0 -54 -9 -94 -19 -39 -11
-94 -24 -122 -30 -74 -14 -168 -40 -188 -51 -9 -6 -43 -17 -75 -25 -99 -25
-186 -52 -217 -69 -16 -9 -38 -16 -48 -16 -9 0 -34 -9 -54 -20 -21 -11 -46
-20 -56 -20 -10 0 -35 -9 -57 -20 -22 -11 -47 -20 -57 -20 -10 0 -31 -9 -48
-20 -16 -11 -37 -20 -45 -20 -8 0 -37 -12 -65 -25 -27 -14 -57 -25 -66 -25 -9
0 -22 -6 -28 -14 -7 -8 -27 -18 -44 -22 -18 -4 -48 -15 -67 -25 -19 -11 -40
-19 -47 -19 -7 0 -30 -9 -50 -20 -21 -11 -43 -20 -49 -20 -11 0 -100 -40 -134
-61 -8 -5 -26 -14 -40 -19 -14 -6 -32 -15 -40 -20 -8 -6 -22 -13 -30 -16 -8
-3 -44 -20 -80 -39 -36 -18 -119 -61 -185 -95 -66 -33 -138 -72 -160 -85 -22
-13 -51 -30 -65 -37 -26 -14 -267 -171 -286 -187 -7 -6 -48 -35 -93 -65 -45
-30 -92 -63 -105 -73 -13 -10 -34 -25 -46 -33 -12 -8 -153 -120 -313 -249
-256 -205 -347 -283 -347 -297 0 -11 49 -2 59 10 7 8 26 18 42 21 16 4 31 10
34 15 3 5 76 43 163 85 86 42 164 81 172 86 8 5 26 14 40 20 14 5 57 25 95 43
68 33 92 44 225 100 36 16 85 37 110 48 98 44 127 57 190 82 36 15 78 33 93
41 16 8 34 15 40 15 7 0 35 12 62 25 28 14 59 25 71 25 11 0 29 7 40 15 10 8
26 15 34 15 8 0 38 11 65 25 28 13 58 25 68 25 11 0 33 7 50 15 18 8 55 21 82
29 28 7 64 19 80 24 50 18 127 43 180 57 28 8 68 21 90 29 22 8 50 15 63 16
13 0 33 5 45 12 12 6 47 17 77 24 30 7 73 19 95 28 22 8 54 15 72 16 18 0 52
7 76 15 24 8 75 19 114 25 39 5 83 14 98 20 15 6 70 17 124 25 53 8 110 19
128 24 18 5 63 12 100 16 37 4 85 11 106 16 88 23 346 42 584 45 l253 3 112
54 c62 30 139 67 171 82 31 15 60 31 62 35 3 5 18 11 34 15 16 3 35 12 41 20
6 7 23 16 38 19 15 4 45 15 67 25 89 42 136 61 148 61 6 1 30 9 52 20 22 11
46 19 54 20 8 0 32 9 55 19 23 11 82 31 131 46 50 14 104 31 120 37 17 6 55
16 85 23 30 7 78 19 105 28 78 23 188 43 353 63 48 6 48 19 -1 29 -17 3 -70
15 -117 25 -109 25 -273 48 -475 65 -89 7 -188 18 -220 24 -83 14 -515 20
-725 11z"/>
<path d="M16847 10715 c-3 -11 -11 -120 -16 -243 -6 -122 -13 -227 -16 -231
-3 -5 -9 -53 -15 -106 -6 -53 -17 -125 -25 -158 -57 -234 -88 -336 -126 -425
-11 -23 -19 -49 -19 -57 0 -14 -21 -65 -61 -150 -11 -22 -19 -47 -19 -56 0 -9
-9 -28 -20 -42 -11 -14 -20 -31 -20 -39 0 -7 -8 -29 -19 -48 -10 -19 -24 -53
-31 -75 -7 -22 -16 -44 -21 -49 -5 -6 -9 -16 -9 -24 0 -23 -49 -129 -104 -225
-28 -48 -57 -100 -65 -115 -14 -28 -81 -113 -113 -145 -10 -10 -18 -22 -18
-26 0 -9 -192 -201 -242 -243 -15 -13 -48 -41 -72 -63 -55 -48 -76 -65 -141
-110 -27 -19 -69 -48 -92 -64 -22 -16 -51 -32 -62 -36 -12 -3 -21 -10 -21 -14
0 -5 -15 -14 -32 -22 -18 -7 -36 -17 -39 -21 -7 -11 -278 -148 -293 -148 -6
-1 -29 -9 -51 -20 -22 -11 -46 -19 -54 -20 -8 0 -33 -8 -55 -19 -23 -10 -88
-30 -146 -45 -58 -15 -127 -34 -155 -41 -27 -8 -75 -17 -105 -21 -30 -3 -80
-12 -110 -19 -30 -7 -84 -16 -120 -20 -36 -3 -108 -12 -160 -20 -327 -49
-1005 -67 -1380 -35 -267 22 -1322 20 -1520 -3 -80 -9 -210 -21 -290 -27 -80
-5 -176 -16 -215 -25 -38 -8 -104 -17 -145 -21 -41 -3 -97 -12 -125 -20 -27
-7 -77 -16 -110 -19 -33 -4 -80 -13 -105 -20 -25 -8 -79 -19 -120 -24 -41 -6
-100 -17 -130 -26 -30 -8 -67 -15 -82 -15 -14 0 -39 -5 -55 -11 -15 -6 -64
-20 -108 -30 -83 -18 -198 -50 -250 -68 -58 -20 -130 -43 -170 -53 -22 -6 -58
-19 -81 -29 -23 -11 -49 -19 -58 -19 -9 0 -33 -9 -53 -20 -21 -11 -44 -20 -51
-20 -8 0 -28 -6 -45 -14 -63 -28 -133 -58 -197 -82 -56 -22 -126 -56 -388
-189 -22 -11 -46 -25 -53 -32 -8 -6 -26 -14 -42 -18 -15 -4 -27 -11 -27 -15 0
-4 -15 -14 -32 -21 -18 -7 -58 -29 -88 -49 -79 -51 -91 -58 -135 -80 -22 -11
-71 -41 -110 -65 -38 -25 -81 -50 -95 -57 -14 -7 -27 -15 -30 -19 -3 -3 -30
-22 -60 -42 -30 -20 -75 -50 -100 -67 -25 -17 -67 -45 -95 -63 -27 -18 -58
-40 -67 -49 -10 -10 -23 -18 -29 -18 -7 0 -30 -15 -53 -33 -23 -19 -53 -40
-67 -48 -40 -22 -173 -118 -260 -187 -43 -34 -81 -62 -85 -62 -4 0 -14 -7 -23
-15 -30 -27 -69 -61 -102 -85 -51 -39 -144 -114 -149 -120 -3 -4 -45 -42 -95
-84 -153 -131 -495 -476 -601 -606 -16 -19 -34 -39 -40 -45 -16 -16 -90 -108
-100 -126 -9 -17 -65 -86 -95 -119 -9 -10 -35 -44 -58 -76 -22 -33 -61 -86
-86 -119 -37 -51 -75 -104 -175 -249 -8 -11 -20 -25 -27 -29 -7 -4 -13 -14
-13 -22 0 -8 -11 -26 -25 -41 -14 -15 -25 -33 -25 -40 0 -8 -5 -14 -10 -14
-12 0 -33 -50 -25 -58 5 -6 43 32 88 88 26 32 155 172 274 296 26 28 82 89
123 135 103 115 402 415 474 475 33 27 91 79 130 116 39 38 96 85 126 105 30
21 70 53 90 70 19 18 38 33 41 33 5 0 99 70 146 110 7 6 24 15 38 22 14 6 25
15 25 19 0 4 10 14 23 21 61 34 95 57 159 106 38 29 80 58 91 63 12 5 42 23
67 39 25 16 54 34 65 39 12 5 27 16 34 25 7 9 18 16 24 16 6 0 40 19 76 43 93
60 101 65 146 87 55 27 172 93 180 102 4 3 39 23 78 43 40 20 90 48 112 61 37
21 156 84 230 120 17 8 37 19 45 24 23 14 306 153 395 195 44 20 103 48 130
61 28 13 57 24 66 24 8 0 20 5 26 11 18 18 28 -35 14 -69 -7 -16 -18 -53 -25
-83 -8 -30 -19 -70 -26 -89 -61 -172 -61 -174 -121 -322 -60 -150 -125 -288
-205 -433 -24 -44 -51 -93 -60 -110 -8 -16 -28 -52 -44 -80 -16 -27 -33 -59
-38 -70 -6 -12 -17 -27 -26 -34 -9 -7 -16 -19 -16 -26 0 -7 -12 -28 -27 -48
-16 -19 -40 -54 -55 -78 -45 -72 -51 -81 -104 -164 -29 -44 -65 -97 -81 -117
-15 -20 -39 -53 -53 -73 -14 -19 -32 -44 -40 -55 -8 -11 -26 -36 -40 -55 -14
-20 -43 -60 -65 -90 -22 -30 -67 -93 -100 -141 -33 -47 -79 -110 -102 -139
-24 -30 -43 -58 -43 -63 0 -5 -10 -16 -22 -25 -34 -22 -12 -34 25 -13 18 11
83 53 145 95 142 95 140 94 238 166 45 33 92 67 104 75 27 18 131 99 180 140
20 16 53 42 73 57 21 15 99 76 175 136 75 59 147 115 160 125 26 19 104 83
142 115 14 12 52 44 85 71 33 27 105 90 160 140 55 50 116 104 135 121 74 64
365 363 403 413 22 29 55 69 74 90 19 20 44 50 56 65 12 16 49 63 82 105 33
43 82 111 109 152 27 41 57 87 67 102 11 15 19 30 19 34 0 4 7 15 16 25 17 18
28 39 81 142 46 89 73 151 73 166 0 6 7 25 15 41 14 27 40 135 52 218 6 40 19
47 133 66 136 24 200 36 285 57 44 10 100 21 125 24 25 4 72 13 105 20 33 7
101 16 150 20 50 3 128 12 175 20 47 7 141 16 210 20 69 3 193 13 275 22 126
13 316 16 1190 18 722 1 1060 5 1105 13 36 6 126 18 200 26 74 9 158 20 185
26 28 6 95 17 150 25 125 18 231 40 315 65 36 11 74 20 85 20 11 0 44 9 73 20
29 11 63 20 76 20 13 0 48 11 78 25 29 14 60 25 69 25 9 0 22 6 28 14 6 7 25
16 41 19 16 4 66 24 112 46 46 21 112 53 148 69 58 28 143 78 192 114 10 7 34
24 54 38 108 75 307 264 320 303 3 9 9 17 14 17 5 0 15 11 22 24 12 22 67 90
111 137 9 11 17 23 17 28 0 4 12 24 28 43 33 44 49 67 65 95 7 12 26 41 44 66
17 25 34 54 37 65 4 11 13 26 21 32 8 7 15 20 15 30 0 9 8 28 19 41 10 13 22
35 26 49 4 14 16 36 26 49 11 13 19 30 19 38 0 8 9 26 20 40 11 14 20 35 20
46 0 11 6 28 14 36 15 17 50 109 67 175 5 21 15 48 20 59 20 37 56 216 98 487
13 79 13 341 1 465 -5 50 -16 194 -25 320 -20 295 -19 285 -28 260z"/>
<path d="M4885 5439 c-4 -6 -5 -13 -2 -16 7 -7 27 6 27 18 0 12 -17 12 -25 -2z"/>
<path d="M4840 5391 c0 -17 18 -21 24 -6 3 9 0 15 -9 15 -8 0 -15 -4 -15 -9z"/>
<path d="M12710 4850 c0 -5 18 -10 39 -10 26 0 41 -5 45 -16 3 -8 -17 -76 -46
-149 l-52 -133 -18 28 c-28 47 -120 53 -204 14 -55 -26 -134 -110 -167 -178
-69 -141 -31 -278 81 -293 58 -8 106 12 152 64 26 30 40 40 40 29 0 -51 51
-96 110 -96 65 0 136 53 186 137 35 61 29 77 -7 18 -55 -88 -107 -133 -124
-106 -3 6 54 157 126 338 72 180 134 336 136 346 5 16 -7 17 -146 17 -94 0
-151 -4 -151 -10z m-42 -315 c6 -64 -100 -314 -156 -368 -36 -34 -76 -40 -80
-11 -3 21 63 186 118 295 57 111 111 150 118 84z"/>
<path d="M11142 4809 c-20 -23 -60 -67 -89 -97 l-52 -54 37 7 c60 11 181 65
197 88 29 41 17 81 -28 92 -25 7 -33 2 -65 -36z"/>
<path d="M8696 4811 c-5 -7 5 -11 28 -11 50 0 66 -9 66 -36 0 -25 -66 -199
-172 -459 -72 -173 -96 -205 -157 -205 -23 0 -41 -4 -41 -10 0 -6 87 -10 242
-10 150 0 238 4 233 9 -6 5 -28 11 -50 13 -32 2 -41 7 -43 24 -2 11 24 88 56
170 58 148 59 149 92 152 90 9 106 -17 78 -124 -33 -130 -14 -199 65 -235 78
-35 188 -20 245 34 29 26 77 106 69 113 -3 3 -13 -9 -22 -28 -24 -46 -75 -98
-98 -98 -17 0 -19 5 -13 43 21 132 19 159 -13 209 -24 37 -40 50 -80 65 -28
10 -51 21 -51 24 0 4 28 8 63 11 134 8 227 86 227 190 0 66 -32 107 -105 138
-58 23 -71 24 -336 28 -195 3 -279 1 -283 -7z m465 -32 c19 -19 21 -30 16 -85
-6 -75 -44 -161 -87 -197 -20 -17 -47 -26 -90 -31 -34 -4 -64 -5 -67 -2 -3 3
25 80 62 171 l68 165 38 0 c26 0 46 -7 60 -21z"/>
<path d="M9870 4810 c0 -5 15 -10 34 -10 59 0 61 -17 21 -124 -20 -53 -44
-115 -54 -139 l-19 -42 -10 27 c-21 53 -128 61 -216 16 -87 -44 -179 -174
-192 -272 -18 -128 58 -213 172 -191 26 4 51 22 85 56 31 32 49 44 49 34 0
-29 28 -71 55 -83 76 -35 178 18 241 126 36 61 23 63 -15 3 -17 -27 -43 -61
-56 -75 -25 -27 -65 -35 -65 -13 0 6 61 162 135 346 74 184 135 338 135 343 0
4 -67 8 -150 8 -93 0 -150 -4 -150 -10z m-42 -322 c5 -65 -100 -308 -156 -361
-65 -61 -98 -38 -68 47 30 85 131 289 161 324 35 42 59 39 63 -10z"/>
<path d="M11431 4738 c-15 -35 -34 -80 -41 -100 -13 -34 -17 -37 -59 -40 -58
-4 -69 -28 -12 -28 23 0 41 -2 41 -4 0 -2 -24 -61 -54 -132 -79 -190 -84 -214
-47 -281 25 -48 118 -55 184 -14 35 21 126 141 108 141 -6 0 -17 -13 -25 -28
-37 -72 -136 -142 -136 -96 0 8 37 105 82 215 l81 199 58 0 c41 0 58 4 63 15
4 12 -5 15 -49 15 -30 0 -55 2 -55 4 0 3 16 42 35 87 19 46 35 89 35 96 0 10
-24 13 -90 13 l-91 0 -28 -62z"/>
<path d="M10997 4599 c-124 -29 -240 -143 -266 -262 -48 -214 241 -311 398
-132 47 54 37 64 -12 12 -67 -73 -146 -97 -183 -56 -20 22 -26 106 -11 160 6
25 11 26 88 32 105 7 198 49 223 101 20 42 20 50 0 87 -29 58 -132 83 -237 58z
m120 -24 c9 -25 -25 -100 -67 -148 -39 -44 -94 -76 -108 -63 -9 10 60 142 98
189 33 38 66 48 77 22z"/>
<path d="M11740 4599 c-13 -6 -33 -18 -44 -27 -25 -23 -96 -128 -96 -143 0 -7
19 16 43 51 49 73 91 110 108 93 8 -8 -5 -42 -45 -123 -73 -147 -92 -209 -80
-257 21 -87 139 -111 210 -42 20 19 48 54 62 79 l27 45 6 -59 c9 -79 31 -101
104 -101 38 0 61 6 82 21 31 23 130 161 121 169 -3 3 -18 -15 -32 -40 -35 -59
-101 -128 -118 -122 -22 7 -12 37 73 229 45 100 85 193 90 206 8 22 8 22 -89
22 l-97 0 -74 -158 c-99 -212 -157 -302 -196 -302 -28 0 -16 48 40 159 30 60
59 130 66 154 27 111 -57 187 -161 146z"/>
<path d="M13195 4596 c-68 -22 -118 -52 -166 -103 -125 -129 -130 -280 -13
-349 42 -25 59 -29 124 -29 88 0 116 13 184 80 67 68 56 77 -14 12 -61 -57
-106 -76 -149 -62 -31 9 -46 72 -35 143 l9 57 45 2 c167 9 270 68 270 154 0
88 -128 135 -255 95z m128 -18 c7 -23 -10 -78 -37 -119 -30 -45 -100 -99 -128
-99 -16 0 -13 10 22 79 22 44 54 96 71 115 31 36 64 47 72 24z"/>
<path d="M13646 4596 c-65 -24 -121 -89 -126 -146 -5 -61 1 -74 75 -149 81
-84 92 -114 55 -151 -25 -25 -105 -27 -138 -4 -30 21 -28 31 12 44 19 6 37 18
40 26 30 78 -67 151 -124 94 -53 -53 -27 -129 60 -173 49 -25 63 -28 125 -24
120 7 205 69 205 148 0 56 -18 85 -99 160 -63 59 -71 70 -71 102 0 49 31 69
96 65 56 -4 68 -21 24 -36 -62 -22 -59 -98 5 -129 34 -16 36 -16 63 4 56 41
55 105 -3 149 -43 33 -138 42 -199 20z"/>
<path d="M10367 4560 c-129 -33 -249 -153 -271 -272 -26 -145 118 -250 279
-204 43 13 69 29 106 66 27 27 49 55 49 62 0 7 -17 -6 -38 -29 -70 -78 -142
-103 -182 -63 -72 72 49 430 146 430 29 0 30 -13 5 -49 -31 -43 -31 -81 -1
-111 31 -31 85 -27 121 9 46 46 34 118 -25 148 -36 19 -137 26 -189 13z"/>
<path d="M5387 3986 c-3 -8 -2 -18 3 -21 13 -8 24 15 12 27 -6 6 -11 4 -15 -6z"/>
</g>
</svg>
